<svg width="141" height="45" viewBox="0 0 141 45" fill="none" xmlns="http://www.w3.org/2000/svg">
<path d="M70.33 25.02H76.78C76.6 25.72 76.33 26.38 75.97 27C75.61 27.62 75.16 28.17 74.62 28.65C74.08 29.13 73.44 29.5 72.7 29.76C71.96 30.02 71.12 30.15 70.18 30.15C68.8 30.15 67.56 29.83 66.46 29.19C65.36 28.55 64.48 27.66 63.82 26.52C63.18 25.36 62.86 24.02 62.86 22.5C62.86 20.96 63.19 19.63 63.85 18.51C64.51 17.37 65.39 16.49 66.49 15.87C67.59 15.23 68.82 14.91 70.18 14.91C71.64 14.91 72.88 15.21 73.9 15.81C74.94 16.41 75.75 17.21 76.33 18.21L79.21 16.29C78.59 15.31 77.83 14.48 76.93 13.8C76.05 13.1 75.05 12.57 73.93 12.21C72.81 11.83 71.56 11.64 70.18 11.64C68.6 11.64 67.13 11.9 65.77 12.42C64.43 12.94 63.26 13.69 62.26 14.67C61.28 15.63 60.51 16.78 59.95 18.12C59.41 19.44 59.14 20.9 59.14 22.5C59.14 24.1 59.41 25.57 59.95 26.91C60.49 28.25 61.25 29.41 62.23 30.39C63.23 31.37 64.4 32.13 65.74 32.67C67.08 33.19 68.54 33.45 70.12 33.45C71.78 33.45 73.26 33.15 74.56 32.55C75.88 31.93 76.98 31.09 77.86 30.03C78.74 28.97 79.4 27.76 79.84 26.4C80.28 25.02 80.48 23.56 80.44 22.02H70.33V25.02ZM87.1305 27.6V19.2H83.8005V27.96C83.8005 29.6 84.2105 30.9 85.0305 31.86C85.8705 32.82 87.0605 33.3 88.6005 33.3C89.5605 33.3 90.3805 33.1 91.0605 32.7C91.7605 32.28 92.3305 31.67 92.7705 30.87V33H96.0105V19.2H92.7705V27.6C92.7705 28.22 92.6405 28.77 92.3805 29.25C92.1205 29.71 91.7605 30.07 91.3005 30.33C90.8405 30.57 90.3005 30.69 89.6805 30.69C88.8205 30.69 88.1805 30.42 87.7605 29.88C87.3405 29.34 87.1305 28.58 87.1305 27.6ZM100.028 13.71C100.028 14.25 100.228 14.72 100.628 15.12C101.048 15.5 101.528 15.69 102.068 15.69C102.648 15.69 103.128 15.5 103.508 15.12C103.908 14.72 104.108 14.25 104.108 13.71C104.108 13.15 103.908 12.68 103.508 12.3C103.128 11.92 102.648 11.73 102.068 11.73C101.528 11.73 101.048 11.92 100.628 12.3C100.228 12.68 100.028 13.15 100.028 13.71ZM100.478 19.2V33H103.658V19.2H100.478ZM118.497 9.6V33H121.767V9.6H118.497ZM107.067 26.1C107.067 27.6 107.377 28.89 107.997 29.97C108.617 31.05 109.437 31.88 110.457 32.46C111.497 33.02 112.607 33.3 113.787 33.3C114.947 33.3 115.957 33.01 116.817 32.43C117.697 31.85 118.387 31.02 118.887 29.94C119.407 28.86 119.667 27.58 119.667 26.1C119.667 24.6 119.407 23.32 118.887 22.26C118.387 21.18 117.697 20.35 116.817 19.77C115.957 19.19 114.947 18.9 113.787 18.9C112.607 18.9 111.497 19.19 110.457 19.77C109.437 20.33 108.617 21.15 107.997 22.23C107.377 23.29 107.067 24.58 107.067 26.1ZM110.427 26.1C110.427 25.18 110.617 24.39 110.997 23.73C111.377 23.07 111.877 22.57 112.497 22.23C113.137 21.89 113.827 21.72 114.567 21.72C115.187 21.72 115.797 21.89 116.397 22.23C117.017 22.57 117.517 23.07 117.897 23.73C118.297 24.37 118.497 25.16 118.497 26.1C118.497 27.04 118.297 27.84 117.897 28.5C117.517 29.14 117.017 29.63 116.397 29.97C115.797 30.31 115.187 30.48 114.567 30.48C113.827 30.48 113.137 30.31 112.497 29.97C111.877 29.63 111.377 29.13 110.997 28.47C110.617 27.81 110.427 27.02 110.427 26.1ZM124.733 26.1C124.733 27.5 125.053 28.75 125.693 29.85C126.353 30.93 127.243 31.78 128.363 32.4C129.483 33 130.753 33.3 132.173 33.3C133.593 33.3 134.853 33 135.953 32.4C137.073 31.78 137.963 30.93 138.623 29.85C139.283 28.75 139.613 27.5 139.613 26.1C139.613 24.68 139.283 23.43 138.623 22.35C137.963 21.27 137.073 20.43 135.953 19.83C134.853 19.21 133.593 18.9 132.173 18.9C130.753 18.9 129.483 19.21 128.363 19.83C127.243 20.43 126.353 21.27 125.693 22.35C125.053 23.43 124.733 24.68 124.733 26.1ZM128.063 26.1C128.063 25.24 128.243 24.48 128.603 23.82C128.963 23.16 129.453 22.65 130.073 22.29C130.693 21.93 131.393 21.75 132.173 21.75C132.933 21.75 133.623 21.93 134.243 22.29C134.883 22.65 135.383 23.16 135.743 23.82C136.103 24.48 136.283 25.24 136.283 26.1C136.283 26.96 136.103 27.72 135.743 28.38C135.383 29.02 134.883 29.53 134.243 29.91C133.623 30.27 132.933 30.45 132.173 30.45C131.393 30.45 130.693 30.27 130.073 29.91C129.453 29.53 128.963 29.02 128.603 28.38C128.243 27.72 128.063 26.96 128.063 26.1Z" fill="#222222"/>
<path fill-rule="evenodd" clip-rule="evenodd" d="M10.0283 34.3317C9.2419 33.869 8.47121 33.4222 7.68478 32.9595C7.35449 32.7681 7.07137 32.5926 6.81972 32.417L1.00018 28.9388C0.968723 32.9436 1.36194 33.8211 4.4919 35.672C8.29819 37.9217 12.1359 40.0916 15.9422 42.3733C16.1939 42.5328 16.4455 42.6605 16.6815 42.8041C19.8901 44.6389 20.7866 44.3837 24.6244 42.0542C26.8106 40.7299 29.0912 39.4534 31.3247 38.161C32.9447 37.2356 34.5648 36.2942 36.1061 35.3209C38.6856 33.7094 39.0316 32.6883 39.0002 29.0345C39.0002 29.0185 39.0002 29.0026 39.0002 28.9866L32.3313 32.9914C32.2369 33.0553 32.1426 33.1031 32.0482 33.151C31.4662 33.502 30.8843 33.853 30.2866 34.2041L27.6442 35.7837C27.6599 35.7517 27.6757 35.7198 27.6914 35.6879C26.3388 36.4697 24.9861 37.2356 23.6649 38.0334C20.4091 40.0278 19.8114 40.1076 16.7758 38.2887C14.5267 36.9484 12.2775 35.6401 10.0283 34.3317ZM36.0904 27.3911C38.5441 25.8434 38.9687 24.8542 38.9845 21.5992C38.9845 21.4397 38.9845 21.2642 38.9845 21.1046C38.9845 21.0887 38.9845 21.0568 38.9845 21.0408L35.0681 23.3863L32.7717 24.7584C32.5201 24.918 32.2841 25.0616 32.0325 25.2211C31.246 25.6998 30.4596 26.1625 29.6575 26.6252L28.1161 27.5506C28.1161 27.5347 28.1161 27.5187 28.1161 27.5028C26.6219 28.3484 25.1119 29.21 23.6492 30.1035C20.3934 32.082 19.7957 32.1777 16.7601 30.3588C11.5225 27.2156 6.30068 24.0883 1.04737 20.9451C1.04737 21.679 1.04737 22.413 1.04737 23.1469C1.25184 25.3966 2.0068 26.2742 4.47617 27.7261C4.61773 27.8059 4.75929 27.8857 4.90084 27.9814C8.56558 30.1514 12.246 32.2256 15.9108 34.4274C19.7328 36.7091 20.472 36.5974 24.5772 34.0924C25.7253 33.3903 26.9207 32.7042 28.1003 32.0182C29.4058 31.2683 30.7113 30.5343 32.001 29.7844C33.0234 29.194 34.0614 28.5877 35.0523 27.9814C35.4298 27.8059 35.7601 27.5985 36.0904 27.3911ZM35.0838 9.07419C31.2146 6.82447 27.3454 4.52688 23.4919 2.27716C20.0946 0.314632 19.2609 0.585875 15.1558 3.10684C11.9787 5.03745 8.84869 6.85638 5.62435 8.69126L5.56144 8.70721L5.40415 8.78699C5.24687 8.88272 5.08958 8.9625 4.9323 9.05823L4.90084 9.07419C4.7121 9.18588 4.53909 9.28161 4.36607 9.3933C2.96624 10.2389 2.13263 10.8931 1.64505 11.7388C0.952995 12.9514 0.890081 15.1054 1.33048 16.4456C1.66078 17.4508 2.27419 18.1369 3.43809 18.9187C3.75266 19.1261 4.09869 19.3495 4.4919 19.5729C4.63346 19.6527 4.77501 19.7484 4.91657 19.8282L4.94803 19.8441C8.59703 22.0141 12.2775 24.0883 15.9265 26.2742C19.7485 28.5558 20.4878 28.4441 24.5929 25.9391C25.7411 25.2371 26.9364 24.551 28.1318 23.8649C29.4373 23.115 30.7427 22.3811 32.0325 21.6311C32.0325 21.1525 32.0325 20.6738 32.0325 20.1952C32.0325 18.9028 31.9538 17.9773 31.7179 17.2274C31.2932 15.8872 30.3338 15.1373 28.3205 13.9406L21.0225 9.63263C20.4406 9.29756 20.472 9.31352 19.5755 9.88792L18.7576 10.4144C17.8454 11.0048 17.9398 12.4089 18.7734 12.9195C20.9124 14.1799 23.0515 15.4404 25.1906 16.685C26.8735 17.6742 27.6128 18.2965 27.9431 19.4452C26.5118 20.259 25.0648 21.0727 23.6806 21.9343C20.4248 23.9128 19.8272 24.0085 16.7916 22.1896C13.7402 20.3866 10.7047 18.6634 7.68478 16.8605C6.99273 16.4456 6.45796 16.0946 6.06475 15.7276C5.23114 14.9458 4.96376 14.4352 5.71872 13.5258C6.23776 12.9035 7.07137 12.361 8.42402 11.5952C11.0349 10.1432 13.583 8.6753 16.1467 7.11166C16.2253 7.0638 16.304 7.01593 16.3826 6.96807C19.434 5.10127 20.1417 4.94172 22.7684 6.45749C25.8826 8.26046 29.0126 10.1272 32.1268 11.9462C35.823 14.1002 35.1624 15.951 35.3354 19.7005C35.6815 19.4931 35.7444 19.4452 36.0904 19.2378C38.2609 17.8657 38.8429 16.9402 38.9687 14.4671C38.8429 11.7228 38.1194 10.8772 35.2725 9.21779C35.2096 9.15397 35.1467 9.12205 35.0838 9.07419Z" fill="#234DD4"/>
</svg>
